<?xml version="1.0" encoding="utf-8"?>
<!-- Generator: Adobe Illustrator 21.0.0, SVG Export Plug-In . SVG Version: 6.00 Build 0)  -->
<svg version="1.1" xmlns="http://www.w3.org/2000/svg" xmlns:xlink="http://www.w3.org/1999/xlink" x="0px" y="0px"
	 viewBox="0 0 500 500" style="enable-background:new 0 0 500 500;" xml:space="preserve">
<style type="text/css">
	.st0{fill:#E6EEFF;}
	.st1{fill:#182C5E;}
	.st2{opacity:0.45;fill:url(#SVGID_1_);}
	.st3{fill:#0C1D3F;}
	.st4{fill:#FFCE7A;}
	.st5{fill:#FFFFFF;}
	.st6{opacity:0.45;fill:url(#SVGID_2_);}
	.st7{fill:#DFE1E5;}
	.st8{fill:url(#SVGID_3_);}
	.st9{fill:#6DE2A9;}
	.st10{fill:#FF545E;}
	.st11{opacity:0.25;fill:#FFFFFF;}
	.st12{fill:url(#SVGID_4_);}
	.st13{opacity:0.25;fill:none;stroke:#FFFFFF;stroke-width:0.3922;stroke-miterlimit:10;}
	.st14{opacity:0.45;fill:url(#SVGID_5_);}
	.st15{fill:url(#SVGID_6_);}
	.st16{opacity:0.45;fill:url(#SVGID_7_);}
	.st17{fill:url(#SVGID_8_);}
	.st18{fill:#D8E1EF;}
	.st19{opacity:0.45;fill:url(#SVGID_9_);}
	.st20{opacity:0.45;fill:url(#SVGID_10_);}
	.st21{fill:url(#SVGID_11_);}
	.st22{opacity:0.45;fill:url(#SVGID_12_);}
	.st23{fill:url(#SVGID_13_);}
	.st24{fill:#30061F;}
	.st25{fill:url(#SVGID_14_);}
	.st26{fill:url(#SVGID_15_);}
	.st27{fill:url(#SVGID_16_);}
	.st28{fill:url(#SVGID_17_);}
	.st29{fill:none;stroke:#FF9271;stroke-width:0.3922;stroke-miterlimit:10;}
	.st30{fill:none;stroke:#F96948;stroke-width:0.3922;stroke-miterlimit:10;}
	.st31{opacity:0.45;fill:url(#SVGID_18_);}
	.st32{opacity:0.45;fill:url(#SVGID_19_);}
</style>
<g id="OBJECTS">
	<g>
		<path class="st0" d="M112.5,219c0,0-47.5,42.8-38.2,114.8c9.3,72,115.9,27.2,165.8,49.3c50,22.1,133.6,85.1,178-4.7
			c44.4-89.8-8.9-97.8-49.9-134.6c-41-36.8-22.4-92.5-66.3-101.8C258.1,132.7,124.9,118.9,112.5,219z"/>
		<g>
			<g>
				<path class="st1" d="M220.6,100.7c0.3,12.2-4.9,22.2-13,23.5l-24.7,4.1l-27.6,4.6l-35.8,5.9l-2.4,0.4l-1.1-6.6L108.3,86h0
					l14.8-2.5L198.8,71c8.6-1.4,17.4,7.6,20.6,20.6c0.3,1.1,0.5,2.1,0.7,3.2C220.4,96.8,220.6,98.8,220.6,100.7z"/>
				
					<linearGradient id="SVGID_1_" gradientUnits="userSpaceOnUse" x1="212.1371" y1="146.0643" x2="161.8159" y2="32.0028" gradientTransform="matrix(0.9865 -0.1637 0.1637 0.9865 -15.0499 85.8373)">
					<stop  offset="0" style="stop-color:#000000"/>
					<stop  offset="1" style="stop-color:#000000;stop-opacity:0"/>
				</linearGradient>
				<path class="st2" d="M220.6,100.7c0.3,12.2-4.9,22.2-13,23.5l-90.5,15l-1.1-6.6C142.7,129.1,194.1,119.9,220.6,100.7z"/>
				<path class="st3" d="M296,332l-81.1,13.7c-1.8,0.3-3.4-0.8-3.8-2.6l-34.4-157.3c-0.4-1.9,0.8-3.7,2.7-4l96.1-16.3
					c1.9-0.3,3.7,1,3.9,2.9l19.4,159.8C299,330.1,297.8,331.7,296,332z"/>
				<g>
					<path class="st4" d="M329.3,191.7l11.3,123.9c0.2,1.7-1.1,3.2-2.8,3.3l-30.8,2.8l-44.7,4.1c-1.7,0.2-3.2-1.1-3.3-2.8
						l-11.3-123.9c-0.2-1.7,1.1-3.2,2.8-3.3l19.9-1.8l55.5-5.1C327.6,188.7,329.1,190,329.3,191.7z"/>
					
						<rect x="304" y="209.4" transform="matrix(9.121480e-02 0.9958 -0.9958 9.121480e-02 497.396 -116.9687)" class="st1" width="17.5" height="9.2"/>
					
						<rect x="219.6" y="250.8" transform="matrix(9.121407e-02 0.9958 -0.9958 9.121407e-02 516.065 -49.0741)" class="st1" width="130.6" height="14.9"/>
					
						<rect x="315.4" y="296.7" transform="matrix(9.121428e-02 0.9958 -0.9958 9.121428e-02 590.988 -52.3232)" class="st5" width="17.5" height="1.8"/>
					
						<rect x="311.7" y="297.1" transform="matrix(9.120913e-02 0.9958 -0.9958 9.120913e-02 587.9739 -48.3413)" class="st5" width="17.5" height="1.8"/>
					
						<rect x="308" y="297.4" transform="matrix(9.121428e-02 0.9958 -0.9958 9.121428e-02 584.9562 -44.3621)" class="st5" width="17.5" height="1.8"/>
					
						<linearGradient id="SVGID_2_" gradientUnits="userSpaceOnUse" x1="148.2636" y1="236.6686" x2="412.0295" y2="194.7345" gradientTransform="matrix(0.9865 -0.1637 0.1637 0.9865 -15.0499 85.8373)">
						<stop  offset="0" style="stop-color:#000000"/>
						<stop  offset="1" style="stop-color:#000000;stop-opacity:0"/>
					</linearGradient>
					<path class="st6" d="M307.1,321.7l-44.7,4.1c-1.7,0.2-3.2-1.1-3.3-2.8l-11.3-123.9c-0.2-1.7,1.1-3.2,2.8-3.3l19.9-1.8
						C275.3,225.1,287.1,286.8,307.1,321.7z"/>
				</g>
				<path class="st3" d="M213.2,355.7l-48.9,8.1c-19.8,3.3-38.7-9.6-42.9-29.2L88.9,183.9c-4.5-21,9.4-41.5,30.6-45l63.3-10.5
					c21.2-3.5,41,11.4,43.5,32.7l18,153.2C246.7,334.2,233,352.5,213.2,355.7z"/>
				<path class="st1" d="M275.2,345.5l-111,18.4c-2.4,0.4-4.7-1.2-5.2-3.6l-46.3-215.4c-0.5-2.6,1.1-5.1,3.7-5.5l39-6.5l92.6-15.4
					c2.6-0.4,5,1.4,5.3,4l14,118.7L279,340.4C279.3,342.8,277.6,345.1,275.2,345.5z"/>
				<path class="st3" d="M155.3,220.7c-3.9,0.7-7.7-2-8.3-6l-6.9-41.4c-0.7-3.9,2-7.7,6-8.3l82-13.6c3.9-0.7,7.7,2,8.3,6l6.9,41.4
					c0.7,3.9-2,7.7-6,8.3L155.3,220.7z"/>
				<path class="st7" d="M237.3,203c-0.2,0.1-0.5,0.2-0.7,0.2l-82,13.6c-1.8,0.3-3.5-0.9-3.8-2.7l-6.9-41.4c-0.1-0.6,0-1.2,0.2-1.8
					c0.4-1,1.3-1.8,2.5-2l82-13.6c1.8-0.3,3.5,0.9,3.8,2.7l6.9,41.4C239.6,200.9,238.7,202.4,237.3,203z"/>
				<path class="st5" d="M237.3,203c-0.2,0.1-0.5,0.2-0.7,0.2l-82,13.6c-1.8,0.3-3.5-0.9-3.8-2.7l-6.9-41.4c-0.1-0.6,0-1.2,0.2-1.8
					c0.2-0.1,0.5-0.2,0.7-0.2l82-13.6c1.8-0.3,3.5,0.9,3.8,2.7l6.9,41.4C237.6,201.8,237.6,202.4,237.3,203z"/>
				<path class="st3" d="M208.4,238.5l-21.8,3.6c-3.6,0.6-6.9-1.8-7.5-5.4l0,0c-0.6-3.6,1.8-6.9,5.4-7.5l21.8-3.6
					c3.6-0.6,6.9,1.8,7.5,5.4l0,0C214.4,234.5,212,237.9,208.4,238.5z"/>
				
					<linearGradient id="SVGID_3_" gradientUnits="userSpaceOnUse" x1="227.6157" y1="242.048" x2="149.6162" y2="122.5326" gradientTransform="matrix(0.9865 -0.1637 0.1637 0.9865 -15.0499 85.8373)">
					<stop  offset="0" style="stop-color:#5C89E5"/>
					<stop  offset="1" style="stop-color:#80AEFF"/>
				</linearGradient>
				<path class="st8" d="M211.5,238l-21.8,3.6c-3.6,0.6-6.9-1.8-7.5-5.4v0c-0.6-3.6,1.8-6.9,5.4-7.5l21.8-3.6
					c3.6-0.6,6.9,1.8,7.5,5.4l0,0C217.4,234,215,237.4,211.5,238z"/>
				<g>
					<path class="st3" d="M171.5,261.4l-16.2,2.7c-1,0.2-1.7,1.1-1.5,2.1l1.5,9.2c0.2,1,1.1,1.7,2.1,1.5l16.2-2.7
						c1-0.2,1.7-1.1,1.5-2.1l-1.5-9.2C173.5,261.9,172.6,261.2,171.5,261.4z"/>
					<path class="st3" d="M204.8,255.9l-16.2,2.7c-1,0.2-1.7,1.1-1.5,2.1l1.5,9.2c0.2,1,1.1,1.7,2.1,1.5l16.2-2.7
						c1-0.2,1.7-1.1,1.5-2.1l-1.5-9.2C206.8,256.4,205.8,255.7,204.8,255.9z"/>
					<path class="st3" d="M238.1,250.3l-16.2,2.7c-1,0.2-1.7,1.1-1.5,2.1l1.5,9.2c0.2,1,1.1,1.7,2.1,1.5l16.2-2.7
						c1-0.2,1.7-1.1,1.5-2.1l-1.5-9.2C240.1,250.9,239.1,250.2,238.1,250.3z"/>
					<path class="st3" d="M174.7,280.3l-16.2,2.7c-1,0.2-1.7,1.1-1.5,2.1l1.5,9.2c0.2,1,1.1,1.7,2.1,1.5l16.2-2.7
						c1-0.2,1.7-1.1,1.5-2.1l-1.5-9.2C176.7,280.9,175.7,280.2,174.7,280.3z"/>
					<path class="st3" d="M208,274.8l-16.2,2.7c-1,0.2-1.7,1.1-1.5,2.1l1.5,9.2c0.2,1,1.1,1.7,2.1,1.5l16.2-2.7
						c1-0.2,1.7-1.1,1.5-2.1l-1.5-9.2C209.9,275.3,209,274.6,208,274.8z"/>
					<path class="st3" d="M241.2,269.3l-16.2,2.7c-1,0.2-1.7,1.1-1.5,2.1l1.5,9.2c0.2,1,1.1,1.7,2.1,1.5l16.2-2.7
						c1-0.2,1.7-1.1,1.5-2.1l-1.5-9.2C243.2,269.8,242.3,269.1,241.2,269.3z"/>
					<path class="st3" d="M177.8,299.3l-16.2,2.7c-1,0.2-1.7,1.1-1.5,2.1l1.5,9.2c0.2,1,1.1,1.7,2.1,1.5l16.2-2.7
						c1-0.2,1.7-1.1,1.5-2.1l-1.5-9.2C179.8,299.8,178.8,299.1,177.8,299.3z"/>
					<path class="st3" d="M211.1,293.7l-16.2,2.7c-1,0.2-1.7,1.1-1.5,2.1l1.5,9.2c0.2,1,1.1,1.7,2.1,1.5l16.2-2.7
						c1-0.2,1.7-1.1,1.5-2.1l-1.5-9.2C213.1,294.3,212.1,293.6,211.1,293.7z"/>
					<path class="st3" d="M244.4,288.2l-16.2,2.7c-1,0.2-1.7,1.1-1.5,2.1l1.5,9.2c0.2,1,1.1,1.7,2.1,1.5l16.2-2.7
						c1-0.2,1.7-1.1,1.5-2.1l-1.5-9.2C246.4,288.7,245.4,288.1,244.4,288.2z"/>
					<path class="st3" d="M181,318.2l-16.2,2.7c-1,0.2-1.7,1.1-1.5,2.1l1.5,9.2c0.2,1,1.1,1.7,2.1,1.5l16.2-2.7
						c1-0.2,1.7-1.1,1.5-2.1l-1.5-9.2C182.9,318.7,182,318,181,318.2z"/>
					<path class="st3" d="M214.2,312.7l-16.2,2.7c-1,0.2-1.7,1.1-1.5,2.1l1.5,9.2c0.2,1,1.1,1.7,2.1,1.5l16.2-2.7
						c1-0.2,1.7-1.1,1.5-2.1l-1.5-9.2C216.2,313.2,215.3,312.5,214.2,312.7z"/>
					<path class="st3" d="M247.5,307.2l-16.2,2.7c-1,0.2-1.7,1.1-1.5,2.1l1.5,9.2c0.2,1,1.1,1.7,2.1,1.5l16.2-2.7
						c1-0.2,1.7-1.1,1.5-2.1l-1.5-9.2C249.5,307.7,248.5,307,247.5,307.2z"/>
				</g>
				<g>
					<path class="st5" d="M176.4,273.8l-16.2,2.7c-1,0.2-2-0.5-2.1-1.5l-1.5-9.2c-0.2-1,0.5-2,1.5-2.1l16.2-2.7c1-0.2,2,0.5,2.1,1.5
						l1.5,9.2C178.1,272.7,177.4,273.6,176.4,273.8z"/>
					<path class="st5" d="M209.7,268.3l-16.2,2.7c-1,0.2-2-0.5-2.1-1.5l-1.5-9.2c-0.2-1,0.5-2,1.5-2.1l16.2-2.7c1-0.2,2,0.5,2.1,1.5
						l1.5,9.2C211.4,267.2,210.7,268.1,209.7,268.3z"/>
					<path class="st5" d="M243,262.8l-16.2,2.7c-1,0.2-2-0.5-2.1-1.5l-1.5-9.2c-0.2-1,0.5-2,1.5-2.1l16.2-2.7c1-0.2,2,0.5,2.1,1.5
						l1.5,9.2C244.7,261.6,244,262.6,243,262.8z"/>
				</g>
				<g>
					<path class="st5" d="M179.6,292.7l-16.2,2.7c-1,0.2-2-0.5-2.1-1.5l-1.5-9.2c-0.2-1,0.5-2,1.5-2.1l16.2-2.7c1-0.2,2,0.5,2.1,1.5
						l1.5,9.2C181.3,291.6,180.6,292.6,179.6,292.7z"/>
					<path class="st5" d="M212.9,287.2l-16.2,2.7c-1,0.2-2-0.5-2.1-1.5l-1.5-9.2c-0.2-1,0.5-2,1.5-2.1l16.2-2.7c1-0.2,2,0.5,2.1,1.5
						l1.5,9.2C214.6,286.1,213.9,287.1,212.9,287.2z"/>
					<path class="st5" d="M246.1,281.7l-16.2,2.7c-1,0.2-2-0.5-2.1-1.5l-1.5-9.2c-0.2-1,0.5-2,1.5-2.1l16.2-2.7c1-0.2,2,0.5,2.1,1.5
						l1.5,9.2C247.8,280.6,247.1,281.5,246.1,281.7z"/>
				</g>
				<g>
					<path class="st5" d="M182.7,311.7l-16.2,2.7c-1,0.2-2-0.5-2.1-1.5l-1.5-9.2c-0.2-1,0.5-2,1.5-2.1l16.2-2.7c1-0.2,2,0.5,2.1,1.5
						l1.5,9.2C184.4,310.6,183.7,311.5,182.7,311.7z"/>
					<path class="st5" d="M216,306.2l-16.2,2.7c-1,0.2-2-0.5-2.1-1.5l-1.5-9.2c-0.2-1,0.5-2,1.5-2.1l16.2-2.7c1-0.2,2,0.5,2.1,1.5
						l1.5,9.2C217.7,305,217,306,216,306.2z"/>
					<path class="st5" d="M249.3,300.6l-16.2,2.7c-1,0.2-2-0.5-2.1-1.5l-1.5-9.2c-0.2-1,0.5-2,1.5-2.1l16.2-2.7c1-0.2,2,0.5,2.1,1.5
						l1.5,9.2C251,299.5,250.3,300.5,249.3,300.6z"/>
				</g>
				<g>
					<path class="st9" d="M185.9,330.6l-16.2,2.7c-1,0.2-2-0.5-2.1-1.5l-1.5-9.2c-0.2-1,0.5-2,1.5-2.1l16.2-2.7c1-0.2,2,0.5,2.1,1.5
						l1.5,9.2C187.6,329.5,186.9,330.5,185.9,330.6z"/>
					<path class="st4" d="M219.1,325.1l-16.2,2.7c-1,0.2-2-0.5-2.1-1.5l-1.5-9.2c-0.2-1,0.5-2,1.5-2.1l16.2-2.7c1-0.2,2,0.5,2.1,1.5
						l1.5,9.2C220.8,324,220.2,324.9,219.1,325.1z"/>
					<path class="st10" d="M252.4,319.6l-16.2,2.7c-1,0.2-2-0.5-2.1-1.5l-1.5-9.2c-0.2-1,0.5-2,1.5-2.1l16.2-2.7
						c1-0.2,2,0.5,2.1,1.5l1.5,9.2C254.1,318.4,253.4,319.4,252.4,319.6z"/>
				</g>
				<ellipse transform="matrix(0.9865 -0.1637 0.1637 0.9865 -16.92 19.9787)" class="st3" cx="112.7" cy="112.6" rx="17" ry="27"/>
				<path class="st11" d="M267.2,240.3c-9.7-2.4-10.1-14-12.8-34c-3-22.5-4.5-79.5-11.2-80.6c-6.7-1.1-72.9,11-81.5,9.7
					c-3.4-0.5-5.4-1.4-6.5-2.4l92.6-15.4c2.6-0.4,5,1.4,5.3,4L267.2,240.3z"/>
				<path class="st11" d="M219.4,91.6c-5.3-7.9-12.6-13.7-18.6-15.8c-8.9-3.1-35.4,3.9-53,7.7c-10.7,2.4-19.4,1.2-24.6-0.1L198.8,71
					C207.4,69.5,216.2,78.6,219.4,91.6z"/>
			</g>
			<g>
				<g>
					<path class="st1" d="M352.6,357.3c0.5,3.4,1.3,9.6,0.1,10.8c-1.7,1.6-4.1,8.1-6.3,11.1c-2.2,3-9.7,6.1-11.9,2.1
						c-2.2-4,0.5-10,4.8-16.6c2.7-4.1,3.5-6.6,3.8-7.9c1-0.4,2.4-2,3.7-0.1C348.1,358.5,350.6,357.3,352.6,357.3z"/>
					<linearGradient id="SVGID_4_" gradientUnits="userSpaceOnUse" x1="367.5913" y1="273.9067" x2="330.874" y2="383.4993">
						<stop  offset="0" style="stop-color:#5C89E5"/>
						<stop  offset="1" style="stop-color:#80AEFF"/>
					</linearGradient>
					<path class="st12" d="M386,289.5l-3.2,5.9l-5.3,9.9l-2.9,5.4c0,0-4,1.2-8.7,3c-6.5,2.6-14.6,6.4-15.5,10.1
						c-1.1,4.1,0,13.7,0.9,21.3c0.5,4.5,1,8.2,0.9,9.7c-0.1,2.6-4.2,5.3-7.5,6.1c-1.6,0.4-3.1,0.3-3.7-0.5c-0.4-0.5-1.4-2.7-2.7-5.9
						c-4.4-11.1-11.9-34.6-6.8-43.1c6.5-11,34.5-24.9,34.5-24.9h-0.9c0.4-0.3,1-0.5,1.5-0.6c3.2-0.8,8.3,0.1,12.4,1.3
						C382.9,288.3,386,289.5,386,289.5z"/>
					<path class="st13" d="M370.9,303.6c0,0-20.4,12.1-24,19.9s3.4,32.9,3.4,32.9"/>
					<linearGradient id="SVGID_5_" gradientUnits="userSpaceOnUse" x1="399.1908" y1="360.231" x2="331.8393" y2="304.7978">
						<stop  offset="0" style="stop-color:#000000"/>
						<stop  offset="1" style="stop-color:#000000;stop-opacity:0"/>
					</linearGradient>
					<path class="st14" d="M350.4,323.9c-1.7,6.5,2.1,27.1,1.9,31c-0.2,3.9-9.3,8-11.2,5.6c-0.4-0.5-1.4-2.7-2.7-5.9
						c4.8-1.5,9.1-5.5,10.2-10.3c1.8-7.7-0.8-12.7-2.9-19.6c-2.1-6.9,5.5-5.3,6-10.3c0.6-5,3.6-2.8,13.3-9.6
						c9.8-6.9,12.6-10.5,12.6-10.5v11.1l-2.9,5.4C374.6,310.7,352.1,317.4,350.4,323.9z"/>
					<linearGradient id="SVGID_6_" gradientUnits="userSpaceOnUse" x1="387.4202" y1="280.5511" x2="350.7032" y2="390.1429">
						<stop  offset="0" style="stop-color:#5C89E5"/>
						<stop  offset="1" style="stop-color:#80AEFF"/>
					</linearGradient>
					<path class="st15" d="M397.7,294.3c-0.6,5.1-2.1,10.2-4.3,15.2c-5.3,12-14.4,23.9-23.6,36.5c-13.1,17.9-20.6,49.5-22.9,49.9
						c-0.3-0.3-0.7-0.4-1.2-0.6c-1.9-0.4-4.6,0-5.4-2.1c-0.8-2.1-2.6-0.9-3.6-0.8c-0.3,0-0.6,0-0.7-0.3c-0.7-1.1-1.4-1.3,7.4-26.5
						c0.5-1.4,1.1-2.9,1.7-4.5c1.8-4.7,4.1-10.1,6.5-15.8c4.5-10.3,9.8-21.6,14.6-31.4c4.1-8.4,7.7-15.7,10.1-20.6
						c0.9-1.8,1.6-3.3,2.2-4.3c0.5-1.1,0.9-1.7,0.9-1.7s0,0,0,0c0.3-0.1,13-6.4,17.3-0.5c0.7,0.9,1.2,2.2,1.3,3.8
						C397.8,291.6,397.8,292.8,397.7,294.3z"/>
					<linearGradient id="SVGID_7_" gradientUnits="userSpaceOnUse" x1="414.7685" y1="297.2975" x2="359.4139" y2="296.1792">
						<stop  offset="0" style="stop-color:#000000"/>
						<stop  offset="1" style="stop-color:#000000;stop-opacity:0"/>
					</linearGradient>
					<path class="st16" d="M397.7,294.3c-0.6,5.1-2.1,10.2-4.3,15.2c-2.9-4.7-7.6-7.4-9.2-11.7c-0.4-1.1-0.8-1.9-1.3-2.4
						c-2-2.4-4.4-0.3-6.8-2.2c-0.4-0.3-0.8-0.8-1.2-1.3c-1.9-2.8-5.5-4.7-8.2-5.9c3.2-0.8,8.3,0.1,12.4,1.3c0.3-0.1,13-6.4,17.3-0.5
						l1.3,3.8C397.8,291.6,397.8,292.8,397.7,294.3z"/>
					<path class="st13" d="M391.7,295.3c0,0-13.5,32.1-23,43.8c-9.5,11.7-24.1,56-24.1,56"/>
					<path class="st1" d="M345.6,395.3c-0.4,3.4-1.2,9.7-2.7,10.5c-2,1.1-6,6.8-8.9,9.1c-2.9,2.3-10.9,3.4-12-1.1
						c-1.1-4.5,3-9.6,8.9-14.8c3.7-3.3,5.1-5.5,5.7-6.7c1.1-0.1,2.9-1.3,3.6,0.8C341,395.3,343.7,394.8,345.6,395.3z"/>
				</g>
				<g>
					<g>
						
							<linearGradient id="SVGID_8_" gradientUnits="userSpaceOnUse" x1="311.4147" y1="177.8335" x2="356.4283" y2="126.3136" gradientTransform="matrix(0.9968 -7.990000e-02 7.990000e-02 0.9968 -3.382 104.1853)">
							<stop  offset="0" style="stop-color:#FFD0B0"/>
							<stop  offset="1" style="stop-color:#FF9271"/>
						</linearGradient>
						<path class="st17" d="M343.4,244.5c0,0-5.6-6.7-6.6-8.7c-1-2-2-6.8-2.8-7.5c-0.8-0.6-0.8-2.9-2.1-3.9c-1.2-1-2.2,0.1-2.2,1.5
							c-0.1,1.4,0.1,7.3,0.8,10.1c0.7,2.8,1.3,3.5,0.8,3.7c-0.6,0.2-2-1.1-2.9-0.9c-0.9,0.2,0,2.2,1,3.3s4.3,2.1,5.9,3.9
							c1.6,1.8,4.7,5.4,4.7,5.4"/>
						<path class="st18" d="M393.9,267.5c-1,9.9,0.9,9.6,0,16.7c-0.5,3.8-2.4,7-4.3,10.1c-2.1-0.5-3.8-2-5.9-1.4
							c-2.5,0.8-2.6-1.8-5.4-3.2c-0.7-0.3-1.5-0.6-2.5-0.7c-1.4-0.2-2.4-0.6-3.1-1.1c0,0,0,0,0,0c4.3-6.4,8.9-24.5,12.4-38.1
							c1.4-5.5,2.7-9.2,3.8-11.7c1.4-3.2,2.4-4.4,2.6-4.7c0,0,0.1-0.1,0.1-0.1l7.4,0.5c0,0,0,0,0,0c0.2,0.3,2.2,3.5,1.2,10.5
							C399.3,251.6,395,257.6,393.9,267.5z"/>
						<path class="st1" d="M391.7,233.3C391.7,233.3,391.7,233.3,391.7,233.3c-0.5,0.5-3.3,3.9-6.5,16.4
							c-3.5,13.6-8.1,31.6-12.4,38.1c0,0,0,0,0,0c-4.3,6.4-3.1,9.9-3.1,9.9s-3.1,1.3-6.1-4.9c-3.1-6.2-6.1-8.1-9.1-8.7
							c-3-0.5,1.1-5.3,6.7-6.3c5.6-1,11-15,11.4-17.5c-10.7,5.9-16.4,7.1-20.4,5.9c-1.9-0.5-5.5-3.7-9.1-7.5
							c-0.7-0.8-1.4-1.6-2.1-2.4c0,0,0,0,0,0c-0.2-0.2-0.3-0.4-0.5-0.6c-3-3.6-5.5-7.3-6.3-9.9c1-4.8,5.3-6.8,5.9-6.8
							c6.2,5.4,13.3,11.5,14.1,13.8c8.9-2.8,19.6-13.7,23.2-15.7C380.9,235.2,390.5,233.2,391.7,233.3z"/>
						<path class="st1" d="M423.7,277.6c-2.4,15.9-8.9,29.1-10.4,30.5c-0.5,0.4-1.3,0.7-2.1,0.6c-1.7-0.1-3.8-1.4-4.8-4.1
							c0-0.1-0.1-0.2-0.1-0.3c2.3-14.2,6.2-19.9,6.5-22.8c0.3-2.9,0.3-10.6-4.5-18.5c0.1,0.5,0,1.9-0.3,3.8
							c-1.1,8.8-5.2,29.7-3.9,34.4c-2.1,3-6.7-1.6-9.8,0.6c-2.4,1.7-3.8-0.9-6.1-0.5c-0.6,0.1-1.3,0.4-2,1.1c0.4-2.8,1.9-5.3,3.5-8
							c1.8-3.1,3.8-6.3,4.3-10.1c0.9-7.1-1-6.8,0-16.7c1-9.9,5.4-15.8,6.4-23.2c1-7-1-10.2-1.2-10.5c0,0,0,0,0,0
							C419.8,238.8,426.1,261.6,423.7,277.6z"/>
						<linearGradient id="SVGID_9_" gradientUnits="userSpaceOnUse" x1="427.1303" y1="267.7626" x2="303.7474" y2="253.5978">
							<stop  offset="0" style="stop-color:#000000"/>
							<stop  offset="1" style="stop-color:#000000;stop-opacity:0"/>
						</linearGradient>
						<path class="st19" d="M393.9,267.5c-1,9.9,0.9,9.6,0,16.7c-0.5,3.8-2.4,7-4.3,10.1c-2.1-0.5-3.8-2-5.9-1.4
							c-2.5,0.8-2.6-1.8-5.4-3.2c2.9-1.4,6.2,0.2,7.8-2c2.2-3.2-2.9-4.8,0.5-7.7c3.4-2.9,3.2-8.9,2.3-16.5
							c-0.9-7.6,3.8-6.1,6.4-13.1c2.6-6.9-1.5-7-4.6-8.5c-1.2-0.6-1.7-2.1-1.8-3.8c1.4-3.2,2.4-4.4,2.6-4.7c0,0,0.1-0.1,0.1-0.1
							l7.4,0.5c0,0,0,0,0,0c0.2,0.3,2.2,3.5,1.2,10.5C399.3,251.6,395,257.6,393.9,267.5z"/>
						<linearGradient id="SVGID_10_" gradientUnits="userSpaceOnUse" x1="422.5583" y1="293.5045" x2="389.3829" y2="276.2645">
							<stop  offset="0" style="stop-color:#000000"/>
							<stop  offset="1" style="stop-color:#000000;stop-opacity:0"/>
						</linearGradient>
						<path class="st20" d="M408,266.6c-1.1,8.8-5.2,29.7-3.9,34.4c-2.1,3-6.7-1.6-9.8,0.6c-2.4,1.7-3.8-0.9-6.1-0.5
							c1.8-4.3,9.5-2.1,9.4-7.3c-0.1-5.3,4.8-5.1,5.1-11.9c0.3-6.8-1.1-5.1,2.4-10.7c3.4-5.5,1.2-11.4,1.1-11.6l2,3.3L408,266.6z"/>
						<linearGradient id="SVGID_11_" gradientUnits="userSpaceOnUse" x1="341.589" y1="256.5405" x2="340.1511" y2="255.7933">
							<stop  offset="0" style="stop-color:#000000"/>
							<stop  offset="1" style="stop-color:#000000;stop-opacity:0"/>
						</linearGradient>
						<path class="st21" d="M340.5,255.8c0.2,0.2,0.3,0.4,0.5,0.6C340.8,256.2,340.7,256,340.5,255.8z"/>
						<linearGradient id="SVGID_12_" gradientUnits="userSpaceOnUse" x1="369.4266" y1="284.2117" x2="359.2224" y2="246.33">
							<stop  offset="0" style="stop-color:#000000"/>
							<stop  offset="1" style="stop-color:#000000;stop-opacity:0"/>
						</linearGradient>
						<path class="st22" d="M378.4,245.3c-1.5,1.8-5.8,15.1-5.8,15.1c-10.7,5.9-16.4,7.1-20.4,5.9c-1.9-0.5-5.5-3.7-9.1-7.5
							c4.6,4.4,10.6,6,14,3.5c3.9-3,4.4-0.1,6.5-3.5c2.1-3.4,2-1.1,6.4-3.6C374.4,252.6,373.9,246.2,378.4,245.3z"/>
					</g>
					<linearGradient id="SVGID_13_" gradientUnits="userSpaceOnUse" x1="386.7509" y1="332.4947" x2="434.1378" y2="278.2583">
						<stop  offset="0" style="stop-color:#FFD0B0"/>
						<stop  offset="1" style="stop-color:#FF9271"/>
					</linearGradient>
					<path class="st23" d="M411.1,308.6c-1.1,2.8-4,7.3-4.8,9.2c-1.1,2.4-3.3,3.3-6.7,3c-3.4-0.3-2.6-1.9-2.6-1.9s-1.7-0.1-2-0.9
						c-0.3-0.8,4.5-1.1,5.2-2.3c-1.2,0.8-5.6,2-5.7,1.2c-0.1-0.8,2.7-1.5,4.4-2.7c1.7-1.1,4.3-3.8,3.8-4c-0.5-0.1-3,1.7-3.6,1
						c-0.6-0.7,0.2-1.5,2.1-3.4c1.8-1.7,4.2-2.5,5-3.5C407.3,307.2,409.4,308.5,411.1,308.6z"/>
				</g>
				<g>
					<path class="st24" d="M386,225.1c0,0,1.2-1.5-1.2-5.4s-2.9-10.5,2-12.6c4.9-2.1,9-0.1,10.2,1.5c1.3,1.1,2.3-1.6,4,0.1
						c1.7,1.7,0.3,2.9,1.9,3.6c1.6,0.7,3.2-1,3.9,2.4c0.7,3.4-4.8,9-4.2,10.9c0.6,2-7.8,0-7.8,0h-5.7L386,225.1z"/>
					<linearGradient id="SVGID_14_" gradientUnits="userSpaceOnUse" x1="394.8438" y1="233.1034" x2="394.704" y2="200.7431">
						<stop  offset="0" style="stop-color:#FFD0B0"/>
						<stop  offset="1" style="stop-color:#FF9271"/>
					</linearGradient>
					<path class="st25" d="M402.8,221.9c0,0.4,0,1,0,1.6v0c0,0.7-0.1,1.4-0.2,2c-0.1,0.5-0.3,1.1-0.4,1.5c-0.7,2.2-1.8,3.8-3.1,4.8
						c-1.2,0.9-2.6,1.4-4.1,1.3c-1.3-0.1-2.4-0.4-3.3-0.9c-1.9-1.1-3.1-3-3.8-5c-0.5-1.3-0.7-2.6-0.9-3.6c-0.1-0.8-0.2-1.5-0.2-2
						c0-0.4,0-0.6,0-0.6s3.3-0.1,7.2-3c-0.3,1-2.4,2.7-2.1,2.9c0.3,0.2,4.1-1.1,6-5.3c0.8,2.8,4.9,5.4,4.9,5.4
						S402.8,221.5,402.8,221.9z"/>
					<linearGradient id="SVGID_15_" gradientUnits="userSpaceOnUse" x1="373.4537" y1="221.636" x2="396.4482" y2="228.2757">
						<stop  offset="0" style="stop-color:#FFD0B0"/>
						<stop  offset="1" style="stop-color:#FF9271"/>
					</linearGradient>
					<path class="st26" d="M387.9,227.4c-2.2,1.3-4.7-2.7-3.4-3.9c1.4-1.2,2.5,0.2,2.5,0.2C387.1,224.8,387.4,226.1,387.9,227.4z"/>
					<linearGradient id="SVGID_16_" gradientUnits="userSpaceOnUse" x1="415.7041" y1="222.8746" x2="398.7203" y2="226.0198">
						<stop  offset="0" style="stop-color:#FFD0B0"/>
						<stop  offset="1" style="stop-color:#FF9271"/>
					</linearGradient>
					<path class="st27" d="M402.1,227.1c0.2-0.5,0.3-1,0.4-1.5c0.1-0.7,0.2-1.4,0.2-2v0c0.1-0.1,1.6-1.7,3.1-0.5
						C407.5,224.2,403.4,229,402.1,227.1z"/>
					<linearGradient id="SVGID_17_" gradientUnits="userSpaceOnUse" x1="394.7347" y1="242.2691" x2="396.4121" y2="222.0004">
						<stop  offset="0" style="stop-color:#FFD0B0"/>
						<stop  offset="1" style="stop-color:#FF9271"/>
					</linearGradient>
					<path class="st28" d="M399.1,236.4c-0.4,2.4-2.1,3.4-3.7,3.9c-1.7,0.5-3.2-0.7-3.4-2.2c-0.1-1-0.1-2.4-0.2-3.9
						c0-0.6-0.1-1.2-0.1-1.8c0.9,0.5,2,0.9,3.3,0.9c1.5,0.1,2.9-0.4,4.1-1.3c0,0.9,0.1,1.9,0.2,2.8
						C399.2,235.3,399.2,235.9,399.1,236.4z"/>
					<g>
						<ellipse class="st24" cx="391.8" cy="224.3" rx="0.7" ry="1"/>
						<ellipse class="st24" cx="398.4" cy="224.3" rx="0.7" ry="1"/>
					</g>
					<path class="st29" d="M394.9,224.3c0,0,0.2,0.2,0,0.8c-0.2,0.6-1.1,1-1.1,1.5c0,0.5,0.8,0.7,1,0.6"/>
					<path class="st30" d="M393.2,229.4c0,0,2.1,0.9,4.6-0.3"/>
					<linearGradient id="SVGID_18_" gradientUnits="userSpaceOnUse" x1="402.7048" y1="225.8619" x2="391.4872" y2="237.7435">
						<stop  offset="0" style="stop-color:#000000"/>
						<stop  offset="1" style="stop-color:#000000;stop-opacity:0"/>
					</linearGradient>
					<path class="st31" d="M399.2,234.8c-0.2,0.1-0.5,0.1-0.8,0.2c-3.4,0.6-5.4,0-6.6-0.8c0-0.6-0.1-1.2-0.1-1.8
						c0.9,0.5,2,0.9,3.3,0.9c1.5,0.1,2.9-0.4,4.1-1.3C399.1,232.9,399.2,233.8,399.2,234.8z"/>
					<linearGradient id="SVGID_19_" gradientUnits="userSpaceOnUse" x1="396.1611" y1="211.1279" x2="393.7848" y2="229.265">
						<stop  offset="0" style="stop-color:#000000"/>
						<stop  offset="1" style="stop-color:#000000;stop-opacity:0"/>
					</linearGradient>
					<path class="st32" d="M402.8,221.9c-3.1-0.5-5.1-2.6-5.1-2.6s-2.7,2.6-7,2.8c-1.7,0.1-3-0.1-3.9-0.4c0-0.4,0-0.6,0-0.6
						s3.3-0.1,7.2-3c-0.3,1-2.4,2.7-2.1,2.9c0.3,0.2,4.1-1.1,6-5.3c0.8,2.8,4.9,5.4,4.9,5.4S402.8,221.5,402.8,221.9z"/>
				</g>
			</g>
		</g>
	</g>
</g>
<g id="DESIGNED_BY_FREEPIK">
</g>
</svg>
